<?xml version="1.0" encoding="UTF-8"?>
<svg version="1.1" viewBox="0 0 62 52" xmlns="http://www.w3.org/2000/svg">
<g transform="translate(17 22) rotate(0 4 7.5)">
<path d="m-1.17 0.58t-1.41-0.01q-1.4-0.02-1.56-0.45-0.15-0.42-0.2-0.88t0.02-0.92q0.06-0.45 0.23-0.88 0.18-0.43 0.44-0.8 0.27-0.37 0.62-0.67t0.77-0.5q0.41-0.21 0.86-0.31 0.44-0.1 0.9-0.09t0.9 0.12q0.44 0.12 0.85 0.34 0.4 0.23 0.74 0.54t0.59 0.69q0.25 0.39-0.27 2.91t-1.11 3.93q-0.6 1.42-1.17 2.92-0.55 1.5-1.05 3.19t-1.07 3.17q-0.56 1.49 2.05 1.08 2.61-0.4 4.44-0.52 1.83-0.11 3.48-0.16 1.66-0.05 2.93-0.07 1.28-0.02 1.22 0.73-0.05 0.74 0.1 0.76 0.16 0.02 0.31 0.07t0.28 0.14 0.24 0.21q0.1 0.11 0.18 0.25t0.12 0.29q0.04 0.16 0.04 0.32 0 0.15-0.03 0.31-0.04 0.15-0.11 0.29t-0.18 0.26q-0.1 0.12-0.23 0.22-0.13 0.09-0.27 0.15-0.15 0.06-0.31 0.08t-0.81-0.5-0.66-0.74q-0.01-0.21 0.05-0.41 0.06-0.21 0.18-0.38 0.12-0.18 0.29-0.3 0.17-0.13 0.37-0.2 0.2-0.06 0.42-0.06 0.21 0 0.41 0.07t0.37 0.2 0.28 0.31q0.12 0.17 0.18 0.38 0.05 0.21 0.04 0.42-0.02 0.21-0.1 0.41-0.08 0.19-0.22 0.35-0.13 0.16-0.32 0.27-0.18 0.11-0.39 0.15-0.21 0.05-0.42 0.02-0.21-0.02-0.4-0.11-0.19-0.1-0.35-0.24-0.15-0.15-0.25-0.34-0.09-0.19-0.13-0.4-0.03-0.21 0.01-0.42 0.03-0.21 0.14-0.39 0.1-0.19 0.25-0.33 0.16-0.15 0.35-0.24 0.2-0.08 0.41-0.1 0.21-0.03 0.42 0.02 0.2 0.05 0.38 0.16t0.32 0.28q0.14 0.16-0.44-0.16-0.57-0.33-0.42-0.31 0.16 0.02 0.31 0.07t0.28 0.14 0.24 0.21q0.1 0.11 0.18 0.25t0.12 0.29q0.04 0.16 0.04 0.32 0 0.15-0.03 0.31-0.04 0.15-0.11 0.29t-0.18 0.26q-0.1 0.12-0.23 0.22-0.13 0.09-0.27 0.15-0.15 0.06-0.31 0.08t-0.06 1.79q0.09 1.78-1.13 1.79-1.23 0.02-2.76 0.06t-3.12 0.13q-1.6 0.09-3.97 0.35-2.36 0.25-3.96 0.11-1.59-0.14-3.5-0.84-1.9-0.7-2.91-2.35-1.02-1.64-1.08-3.1t0.23-2.53 0.76-2.28q0.47-1.22 1.06-3.18 0.6-1.95 1.24-3.63 0.64-1.67 1.54-3.64 0.91-1.98 1.21-0.7t0.14 0.85q-0.15-0.42-0.2-0.88t0.02-0.92q0.06-0.45 0.23-0.88 0.18-0.42 0.44-0.8 0.27-0.37 0.62-0.67t0.77-0.5q0.41-0.21 0.86-0.31 0.44-0.1 0.9-0.09t0.9 0.12q0.44 0.12 0.85 0.34 0.4 0.23 0.74 0.54t0.59 0.69q0.25 0.39-0.58 1.52-0.83 1.14-0.78 1.29 0.06 0.15 0.07 0.3 0.02 0.15 0 0.31-0.03 0.15-0.09 0.3-0.05 0.15-0.15 0.28-0.09 0.13-0.21 0.23t-0.26 0.17-0.3 0.11q-0.15 0.03-0.3 0.03-0.16 0-0.31-0.05-0.15-0.04-0.29-0.11-0.14-0.08-0.26-0.19-0.12-0.1-0.2-0.24-0.09-0.13-0.09-0.13z" fill="#1e1e1e"/>
</g>
<g transform="translate(36 10) rotate(0 7.5 11.5)">
<path d="m0.58-1.17t1.63-0.44q1.62-0.43 2.75-0.35 1.14 0.08 2.82 0.17 1.69 0.09 3 0.13 1.32 0.04 2.44 0.06 1.13 0.01 2.79 1.24t1.87 3.89q0.21 2.67-0.19 4.12-0.4 1.46-0.49 2.82t-0.15 2.85q-0.07 1.49-0.14 2.98t-0.47 2.87q-0.39 1.37-2.76 1.6-2.37 0.24-2.39 0.4-0.02 0.15-0.08 0.3t-0.15 0.28-0.21 0.23-0.26 0.18q-0.14 0.07-0.3 0.1-0.15 0.04-0.31 0.04t-0.31-0.04-0.29-0.12q-0.14-0.07-0.26-0.18-0.12-0.1-0.21-0.24-0.08-0.13-0.14-0.28-0.05-0.14-0.07-0.3t0.2 0.34q0.22 0.49 0.08 0.33-0.13-0.17-0.2-0.37-0.08-0.2-0.08-0.41-0.01-0.21 0.06-0.42 0.06-0.2 0.18-0.37 0.13-0.18 0.3-0.3t0.38-0.18q0.2-0.07 0.41-0.06t0.41 0.08 0.37 0.21q0.16 0.13 0.28 0.31 0.11 0.18 0.16 0.38 0.05 0.21 0.04 0.42-0.02 0.21-0.11 0.41-0.08 0.19-0.22 0.35t-0.33 0.26q-0.18 0.11-0.39 0.15t-0.42 0.01-0.4-0.12q-0.19-0.1-0.34-0.25t-0.25-0.34q-0.09-0.19-0.12-0.4t0.01-0.42 0.15-0.39q0.1-0.19 0.26-0.33t0.36-0.23q0.19-0.08 0.4-0.1 0.21-0.01 0.42 0.04t0.6 0.66q0.4 0.61 0.38 0.77-0.02 0.15-0.08 0.3t-0.15 0.28-0.21 0.23-0.26 0.18q-0.14 0.07-0.3 0.1-0.15 0.04-0.31 0.04t-0.31-0.04-0.29-0.12q-0.14-0.07-0.26-0.18-0.12-0.1-0.21-0.24-0.08-0.13-0.14-0.28-0.05-0.14-0.07-0.3t0.63-0.74 0.28-1.67q-0.37-1.08-0.38-2.67t0.07-3.29q0.07-1.69 0.32-3.76t1.18-3.99q0.92-1.92 2.18-0.7 1.25 1.21 0.07 1.19t-2.58-0.07q-1.4-0.04-3.41-0.16t-4.16-0.53q-2.14-0.41-2.82-1.99-0.66-1.59-0.79-1.68-0.14-0.09-0.24-0.2-0.11-0.12-0.19-0.26-0.07-0.14-0.11-0.29-0.05-0.15-0.05-0.31 0-0.15 0.03-0.3 0.04-0.16 0.11-0.3t0.17-0.26 0.23-0.21q0.13-0.1 0.28-0.15 0.15-0.06 0.3-0.09 0.16-0.02 0.31 0 0.15 0.01 0.3 0.07 0.15 0.05 0.15 0.05z" fill="#1e1e1e"/>
</g>
<g transform="translate(20 42) rotate(0 5e-5 5e-5)">
<path d="m1.57-1.57t0.2 0.3q0.21 0.29 0.32 0.63 0.11 0.35 0.1 0.69-0.01 0.36-0.14 0.7-0.12 0.34-0.35 0.62-0.22 0.28-0.52 0.47-0.31 0.2-0.66 0.28-0.34 0.09-0.69 0.06-0.36-0.03-0.69-0.17t-0.6-0.38-0.44-0.56q-0.18-0.31-0.25-0.66-0.06-0.36-0.02-0.7 0.05-0.36 0.21-0.68t0.42-0.57q0.25-0.26 0.57-0.42t0.68-0.21q0.35-0.04 0.7 0.02 0.35 0.07 0.66 0.25 0.32 0.17 0.56 0.44t0.38 0.6 0.17 0.69q0.03 0.35-0.06 0.69-0.09 0.35-0.28 0.66-0.19 0.3-0.47 0.52-0.28 0.23-0.62 0.35-0.34 0.13-0.7 0.14-0.35 0.01-0.69-0.1t-0.63-0.32q-0.3-0.21-0.3-0.2 0 0-0.16-0.22-0.17-0.21-0.28-0.45t-0.15-0.51q-0.05-0.26-0.04-0.52 0.02-0.27 0.1-0.52 0.08-0.26 0.22-0.49 0.14-0.22 0.33-0.41t0.41-0.33q0.23-0.14 0.49-0.22 0.25-0.08 0.52-0.1 0.26-0.01 0.52 0.04 0.27 0.04 0.51 0.15t0.45 0.28q0.22 0.16 0.22 0.16z" fill="#1e1e1e"/>
</g>
</svg>