<?xml version="1.0" encoding="UTF-8"?>
<svg version="1.1" viewBox="0 0 156.44 80.755" xmlns="http://www.w3.org/2000/svg">
<g transform="translate(31.907 46.45) rotate(9.6888 -2 10)">
<path d="m-0.58-1.17t-0.48-0.11q-0.49-0.12-1.67 0.03-1.17 0.15-3.52 0.71-2.35 0.54-4.11 2.51-1.77 1.97-3.41 4.42-1.65 2.45-2.21 4.81t-0.33 4.32q0.24 1.96 1.33 3.11t2.92 1.54q1.83 0.4 5.06-0.63 3.22-1.04 6.64-2.89 3.41-1.86 6.51-4.22 3.09-2.36 5.01-5.85 1.91-3.48 3.28-6.32 1.37-2.83 1.5-3 0.12-0.17 0.29-0.3t0.37-0.19q0.21-0.06 0.42-0.06t0.41 0.07q0.2 0.08 0.37 0.21 0.16 0.13 0.28 0.31 0.12 0.17 0.17 0.38t0.04 0.42q-0.02 0.21-0.1 0.41-0.08 0.19-0.22 0.35t-0.33 0.27q-0.18 0.1-0.39 0.15-0.21 0.04-0.42 0.01t-0.4-0.12-0.34-0.24-0.25-0.34-0.13-0.4 0.01-0.42 0.14-0.39q0.1-0.19 0.26-0.33t0.35-0.23q0.2-0.09 0.41-0.11 0.21-0.01 0.42 0.03 0.2 0.05 0.38 0.17 0.18 0.11 0.32 0.27 0.13 0.17 0.21 0.37 0.07 0.2 0.08 0.41t-0.05 0.41q-0.06 0.21-0.06 0.21t-1.38 2.82q-1.37 2.84-3.17 7.03-1.8 4.18-4.74 7.7t-6.95 6.03q-4 2.51-8.79 3.63-4.8 1.13-8.3-0.17t-5.49-4.14-2.23-6.2 0.77-6.76q1.02-3.4 3.09-6.39 2.07-2.97 4.99-5.66 2.92-2.7 5.84-3.56 2.91-0.86 5.15-0.43 2.24 0.42 3.85 1.44 1.62 1.02 2.56 2.54 0.93 1.53 0.7 2.66t-1.87 1.59q-1.63 0.46-1.78 0.51-0.15 0.06-0.3 0.07-0.15 0.02-0.31 0-0.15-0.03-0.3-0.09-0.15-0.05-0.28-0.15-0.13-0.09-0.23-0.21t-0.17-0.26-0.11-0.3q-0.03-0.15-0.03-0.3 0-0.16 0.05-0.31 0.04-0.15 0.11-0.29 0.08-0.14 0.19-0.26 0.1-0.12 0.24-0.2 0.13-0.09 0.13-0.09z" fill="#1e1e1e"/>
</g>
<g transform="translate(44.888 13.279) rotate(9.6888 15 28)">
<path d="m1.28-0.28t1.51 2.37q1.51 2.38 2.35 6.37 0.85 4 1.79 8.87 0.94 4.88 1.91 10.11t1.95 10.01q0.98 4.77 1.69 8.57 0.71 3.79 1.3 5.68t0.61 2.29q0.03 0.4-0.04 0.79t-0.23 0.75q-0.16 0.37-0.41 0.68-0.24 0.32-0.55 0.56-0.32 0.25-0.68 0.41-0.36 0.17-0.75 0.24-0.39 0.08-0.79 0.05-0.4-0.02-0.78-0.14-0.38-0.11-0.72-0.32-0.34-0.2-0.62-0.48t-0.49-0.62-0.33-0.72 0.88-1.99 0.75-2.72q-0.25-1.12 0.46-4.11t1.6-6q0.88-3 2.16-5.3 1.27-2.3 3.98-3.26 2.72-0.96 4.39-0.16 1.68 0.8 2.95 2.61 1.27 1.8 2.04 3.49 0.78 1.68 1.42 3.1 0.65 1.42 1.7 2.66 1.06 1.23 1.25 1.33 0.19 0.09 0.34 0.25 0.15 0.15 0.24 0.34t0.12 0.4-0.01 0.42q-0.05 0.21-0.15 0.39-0.11 0.19-0.27 0.33t-0.35 0.22q-0.2 0.08-0.41 0.1-0.21 0.01-0.42-0.04-0.2-0.05-0.38-0.17-0.18-0.11-0.31-0.28t-0.2-0.37q-0.08-0.2-0.08-0.41t0.06-0.41q0.06-0.21 0.19-0.38 0.12-0.17 0.3-0.29 0.17-0.13 0.37-0.19 0.21-0.06 0.42-0.05t0.41 0.08q0.2 0.08 0.36 0.21 0.17 0.14 0.28 0.31 0.12 0.18 0.16 0.39 0.05 0.21 0.04 0.42-0.02 0.21-0.11 0.41-0.08 0.19-0.23 0.35-0.14 0.15-0.33 0.26-0.18 0.1-0.39 0.14t-0.42 0.01-0.21-0.03-1.91-0.39q-1.91-0.38-3.22-0.96-1.32-0.58-2.4-2.13-1.08-1.56-1.67-2.81-0.59-1.26-0.95-2.82-0.36-1.55-0.97-0.22t-1.44 4.16q-0.84 2.83-1.47 5.46-0.64 2.62-1.42 4.34-0.78 1.71-0.76 2.11 0.03 0.4-0.04 0.79t-0.23 0.75q-0.16 0.37-0.41 0.68-0.24 0.32-0.55 0.56-0.32 0.25-0.68 0.41-0.36 0.17-0.75 0.24-0.39 0.08-0.79 0.05-0.4-0.02-0.78-0.14-0.38-0.11-0.72-0.32-0.34-0.2-0.62-0.48t-0.49-0.62-0.33-0.72-0.7-2.27q-0.59-1.89-1.29-5.63t-1.7-8.58q-0.99-4.84-1.95-10.05-0.96-5.22-1.87-10.05-0.9-4.83-1.7-8.78-0.79-3.96-0.43-6.75 0.36-2.8 0.35-2.96-0.02-0.15 0-0.3 0.03-0.16 0.09-0.31 0.06-0.14 0.15-0.27t0.21-0.23 0.27-0.17q0.14-0.07 0.29-0.11 0.16-0.03 0.31-0.03 0.15 0.01 0.31 0.05 0.15 0.04 0.29 0.11 0.14 0.08 0.25 0.19 0.12 0.11 0.2 0.24 0.09 0.13 0.14 0.28 0.06 0.15 0.06 0.15z" fill="#1e1e1e"/>
</g>
<g transform="translate(96.071 45.719) rotate(9.6888 -5 9)">
<path d="m-0.92 0.92t-1.47-0.13q-1.46-0.13-2.83 0.27t-2.62 1.69q-1.25 1.3-2.62 3.41t-2.16 4.5-1.17 4.21 1.04 0.87q1.43-0.94 2.92-3.01 1.48-2.07 3.09-4.47 1.61-2.39 2.92-4.35 1.31-1.97 2.08-2.47t1.03-0.8 0.59-0.53q0.31-0.22 0.68-0.37 0.37-0.14 0.76-0.2 0.4-0.05 0.79-0.01 0.4 0.04 0.77 0.18 0.37 0.13 0.7 0.35t0.6 0.51 0.46 0.64 0.29 0.74q0.1 0.38 0.1 0.78 0.01 0.4-0.08 0.78-0.09 0.39-0.27 0.75-0.18 0.35 0.27-0.73 0.45-1.09 1.04 0.65 0.58 1.73 0.83 3.47t0.7 3.7q0.46 1.96 0.82 3.25 0.37 1.29 0.53 1.44 0.15 0.14 0.26 0.33 0.1 0.18 0.14 0.39t0.01 0.42-0.13 0.4q-0.09 0.19-0.25 0.34-0.15 0.15-0.34 0.24t-0.4 0.12-0.42-0.01q-0.21-0.05-0.39-0.15-0.19-0.11-0.33-0.27t-0.22-0.35q-0.08-0.2-0.1-0.41-0.01-0.21 0.04-0.42 0.05-0.2 0.17-0.38 0.11-0.18 0.28-0.31t0.37-0.2q0.2-0.08 0.41-0.08t0.41 0.06q0.21 0.06 0.38 0.19 0.17 0.12 0.29 0.3 0.13 0.17 0.19 0.37 0.06 0.21 0.05 0.42t-0.08 0.41q-0.08 0.2-0.21 0.36-0.14 0.17-0.32 0.28-0.18 0.12-0.38 0.17-0.21 0.04-0.42 0.03-0.21-0.02-0.41-0.11-0.19-0.08-0.19-0.08t-2.29-1.31-3-2.45q-0.72-1.14-1.17-2.61t-0.57-2.66q-0.13-1.19-0.41-2.3-0.29-1.11-0.55-3.47t0-2.66 0.59-0.53q0.31-0.22 0.68-0.37 0.37-0.14 0.76-0.2 0.4-0.05 0.79-0.01 0.4 0.04 0.77 0.18 0.37 0.13 0.7 0.35t0.6 0.51 0.46 0.64 0.29 0.74q0.1 0.38 0.1 0.78 0.01 0.4-0.08 0.78-0.09 0.39-0.27 0.74-0.18 0.36-1.08 0.91-0.89 0.55-2.15 2.43-1.26 1.87-2.98 4.43-1.73 2.57-4.04 5.41t-4.95 4.09q-2.63 1.25-5.08 0.53-2.44-0.71-3.71-3.16-1.26-2.44-0.8-5.26t1.65-5.93q1.18-3.11 3.12-5.82t4.41-4.64q2.47-1.94 4.96-2.37 2.48-0.44 4.43 0.29 1.94 0.73 2.2 2.32 0.26 1.6 0.36 1.72 0.1 0.13 0.16 0.27 0.07 0.14 0.1 0.3t0.02 0.3q-0.01 0.16-0.06 0.31t-0.13 0.29q-0.08 0.13-0.19 0.25-0.12 0.11-0.25 0.19-0.14 0.08-0.29 0.13t-0.31 0.06q-0.14 0.01-0.3-0.02t-0.3-0.1q-0.14-0.06-0.27-0.16-0.12-0.1-0.12-0.1z" fill="#1e1e1e"/>
</g>
<g transform="translate(130.4 49.188) rotate(9.6888 0 -5)">
<path d="m-1.17 0.58t-0.89 0.09q-0.89 0.08-1.8 1.51-0.91 1.44-2.73 3.79-1.81 2.35-3.4 4.98t-2.13 4.79-0.37 3.26q0.17 1.09 0.95 0.32 0.77-0.77 2.95-2.95 2.18-2.17 4.31-5.02t4.72-7.42q2.6-4.56 4.54-9t2.69-8.63 0.8-7.57q0.05-3.37-0.45-5.66t-0.06-1.03q0.43 1.27 0.24 3.65-0.19 2.37-0.06 5.06 0.13 2.7 0.71 5.41t1.59 5.12q1.01 2.42 1.93 5.07t1.62 4.64q0.71 2 2.32 4.03 1.61 2.04 1.73 2.21 0.13 0.18 0.19 0.38 0.07 0.2 0.06 0.41 0 0.22-0.08 0.42-0.07 0.2-0.2 0.36-0.13 0.17-0.31 0.28-0.18 0.12-0.39 0.17-0.2 0.05-0.41 0.04-0.22-0.02-0.41-0.1-0.2-0.09-0.36-0.23-0.15-0.14-0.26-0.32-0.11-0.19-0.15-0.4-0.04-0.2-0.01-0.41 0.03-0.22 0.12-0.41 0.1-0.19 0.24-0.34 0.15-0.15 0.34-0.24 0.19-0.1 0.4-0.13t0.42 0.01 0.4 0.14q0.18 0.11 0.33 0.27 0.14 0.15 0.22 0.35 0.09 0.19 0.11 0.4 0.01 0.22-0.04 0.42-0.05 0.21-0.16 0.39t-0.28 0.31q-0.16 0.14-0.36 0.21t-0.41 0.08q-0.22 0.01-0.42-0.05-0.2-0.07-0.38-0.19-0.17-0.12-0.17-0.12t-2.33-1.87q-2.33-1.86-4.24-3.79t-3.1-4.45q-1.19-2.53-2.44-5.53-1.24-3-1.91-6.29-0.66-3.28-0.76-6.57t0.53-6.87 2.27-5.79q1.65-2.2 3.18-2.58 1.54-0.37 4.17 1.83 2.63 2.21 3.22 5.33 0.58 3.11 0.48 7.05-0.11 3.94-1.07 8.85-0.96 4.9-3.06 9.69-2.1 4.77-4.94 9.71-2.83 4.95-5.39 8.26-2.54 3.32-5.96 6.17-3.41 2.85-6.21 3.2-2.79 0.35-4.88-1.44t-2.45-4.66 0.56-5.96 2.77-6.07 4.07-5.69q2.21-2.71 4.28-4.27t4.07-1.74q1.99-0.18 3.43 0.66t1.13 2.07q-0.32 1.24-0.27 1.39 0.06 0.15 0.07 0.3 0.02 0.15 0 0.31-0.03 0.15-0.09 0.3-0.05 0.15-0.15 0.28-0.09 0.13-0.21 0.23t-0.26 0.17-0.3 0.11q-0.15 0.03-0.3 0.03-0.16 0-0.31-0.05-0.15-0.04-0.29-0.11-0.14-0.08-0.26-0.19-0.12-0.1-0.2-0.24-0.09-0.13-0.09-0.13z" fill="#1e1e1e"/>
</g>
</svg>