<?xml version="1.0" encoding="UTF-8"?>
<svg version="1.1" viewBox="0 0 59.867 40.718" xmlns="http://www.w3.org/2000/svg">
<defs>
<style class="style-fonts">@font-face {
        font-family: "Virgil";
        src: url("https://excalidraw.com/Virgil.woff2");
      }
      @font-face {
        font-family: "Cascadia";
        src: url("https://excalidraw.com/Cascadia.woff2");
      }</style>
</defs>
<rect width="59.867" height="40.718" fill="#fff"/>
<g transform="translate(10 11.57) rotate(0 18.521 -.31391)">
<path d="m0.21-1.29t1.24-0.75 2.61-0.77q1.38-0.02 3.21-0.26 1.83-0.25 3.69-0.55 1.87-0.3 3.86-0.62 2-0.31 3.11-0.39 1.12-0.08 2.45-0.02 1.34 0.07 3.3 0.19 1.96 0.13 3.73 0.28 1.77 0.16 3.47 0.21 1.7 0.06 3.26 0.98 1.55 0.93 1.71 0.78 0.15-0.14 0.35-0.23 0.19-0.08 0.4-0.1t0.42 0.03 0.39 0.16 0.31 0.28q0.14 0.16 0.21 0.36 0.08 0.2 0.09 0.41t-0.05 0.42q-0.06 0.2-0.19 0.37-0.12 0.18-0.29 0.3-0.17 0.13-0.37 0.19-0.21 0.06-0.42 0.06-0.21-0.01-0.41-0.07-0.2-0.07-0.37-0.2t-0.28-0.31q-0.12-0.18-0.17-0.38-0.06-0.21-0.04-0.42 0.01-0.21 0.1-0.41 0.08-0.2 0.22-0.36t0.32-0.26q0.19-0.11 0.39-0.15 0.21-0.04 0.42-0.02 0.21 0.03 0.41 0.12 0.19 0.09 0.34 0.24t0.25 0.34q0.09 0.19 0.12 0.4 0.04 0.21 0 0.42t-0.14 0.39q-0.1 0.19-0.1 0.19t-3.64 1.49q-3.64 1.51-5.47 1.35-1.83-0.15-3.58-0.3-1.75-0.14-3.67-0.24-1.92-0.09-3.78 0.12-1.85 0.2-3.75 0.51t-3.88 0.6q-1.98 0.3-3.04 0.42-1.07 0.11-3.19 0.06-2.12-0.06-3.05-1.17-0.92-1.11-1.07-1.15-0.15-0.05-0.29-0.13t-0.25-0.19q-0.12-0.11-0.2-0.24-0.08-0.14-0.13-0.29t-0.06-0.31q-0.02-0.14 0.01-0.3t0.09-0.3q0.06-0.15 0.16-0.27 0.09-0.13 0.21-0.23 0.13-0.1 0.27-0.17 0.14-0.06 0.3-0.09 0.15-0.03 0.3-0.03 0.16 0.01 0.16 0.01z" fill="#1e1e1e"/>
</g>
<g transform="translate(12.511 20.987) rotate(0 18.678 -1.4126)">
<path d="m0.1-1.3t1.16-0.83q1.16-0.82 2.43-0.99t2.85-0.33 3.29-0.32 3.53-0.37q1.82-0.2 3.57-0.37 1.74-0.16 3.54-0.2 1.8-0.03 3.47-0.17 1.67-0.13 3.48-0.28 1.82-0.16 3.4-0.38 1.58-0.23 4.43 1.02 2.86 1.25 2.95 1.44t0.12 0.4-0.01 0.42-0.15 0.39q-0.1 0.19-0.26 0.33t-0.35 0.23q-0.2 0.08-0.41 0.1-0.21 0.01-0.42-0.04t-0.38-0.17q-0.18-0.11-0.32-0.28-0.13-0.16-0.2-0.36t-0.08-0.42q0-0.21 0.06-0.41t0.19-0.38q0.12-0.17 0.29-0.29 0.18-0.12 0.38-0.19 0.2-0.06 0.42-0.05 0.21 0 0.41 0.08 0.2 0.07 0.36 0.21 0.17 0.13 0.28 0.31t0.17 0.38q0.05 0.21 0.03 0.42t-0.1 0.41q-0.09 0.19-0.23 0.35t-0.33 0.26q-0.18 0.11-0.39 0.15t-0.42 0.01-0.4-0.13q-0.19-0.09-0.34-0.24t-0.15-0.15-1.31 1.14q-1.3 1.13-3.2 1.39-1.91 0.27-3.73 0.42-1.81 0.15-3.6 0.28-1.79 0.14-3.44 0.16-1.65 0.03-3.35 0.19-1.71 0.16-3.33 0.35-1.63 0.19-3.32 0.34t-3.27 0.31q-1.57 0.16-3.55 0.32-1.97 0.15-2.97-0.85-1-1.01-1.16-1.04-0.15-0.03-0.3-0.1-0.14-0.07-0.26-0.17t-0.22-0.22q-0.09-0.13-0.16-0.28-0.06-0.14-0.08-0.3-0.03-0.16-0.01-0.3 0.01-0.16 0.06-0.31t0.13-0.28q0.09-0.14 0.2-0.25 0.12-0.11 0.26-0.19 0.13-0.07 0.29-0.12 0.15-0.04 0.31-0.05 0.14 0 0.14 0z" fill="#1e1e1e"/>
</g>
<g transform="translate(14.709 30.404) rotate(0 17.422 -2.3543)">
<path d="m-0.09-1.3t1.18-1.11q1.19-1.11 2.82-1.5 1.63-0.38 3.21-0.81t3.43-0.92q1.84-0.49 3.22-0.83t2.75-0.55 2.78-0.43q1.42-0.23 2.7-0.39 1.29-0.17 2.56-0.2t2.4-0.04q1.13 0 2.33 0.01 1.2 0 3.29 0.88 2.09 0.87 2.3 0.88 0.21 0 0.41 0.08 0.2 0.07 0.37 0.21 0.16 0.13 0.27 0.31 0.12 0.18 0.17 0.39 0.05 0.2 0.03 0.41-0.02 0.22-0.1 0.41-0.09 0.19-0.23 0.35t-0.33 0.26q-0.18 0.11-0.39 0.15t-0.42 0.01-0.4-0.13q-0.19-0.09-0.34-0.25-0.15-0.15-0.24-0.34-0.1-0.19-0.13-0.4-0.02-0.21 0.02-0.42t0.14-0.39q0.11-0.19 0.27-0.33t0.35-0.22q0.2-0.08 0.41-0.1t0.42 0.04q0.2 0.05 0.38 0.16 0.18 0.12 0.31 0.29 0.14 0.16 0.21 0.36t0.07 0.41q0.01 0.22-0.05 0.42-0.07 0.2-0.19 0.37-0.13 0.18-0.3 0.3t-0.38 0.18q-0.2 0.06-0.2 0.06t-2.26 1.19q-2.27 1.19-3.45 1.2-1.19 0.01-2.27 0.02-1.09 0-2.61 0.06-1.51 0.05-2.71 0.22-1.19 0.16-2.64 0.45t-2.55 0.49q-1.09 0.19-2.59 0.55t-3.17 0.84q-1.67 0.47-3.6 0.92t-3.16 0.7q-1.23 0.24-2.57-0.69t-1.49-0.93q-0.16-0.01-0.31-0.06-0.15-0.04-0.29-0.12-0.13-0.08-0.25-0.19-0.11-0.11-0.19-0.25-0.09-0.13-0.14-0.28-0.04-0.15-0.06-0.31-0.01-0.15 0.02-0.31 0.03-0.15 0.09-0.3 0.06-0.14 0.16-0.27 0.1-0.12 0.22-0.22t0.27-0.17q0.14-0.06 0.3-0.09 0.15-0.03 0.15-0.03z" fill="#1e1e1e"/>
</g>
</svg>