<svg width="872" height="872" viewBox="0 0 872 872" fill="none" xmlns="http://www.w3.org/2000/svg">
<g filter="url(#filter0_ddii_4_111)">
<rect x="24" y="24" width="824" height="824" rx="184" fill="#262626" style="fill:#262626;fill:color(display-p3 0.1490 0.1490 0.1490);fill-opacity:1;"/>
</g>
<g filter="url(#filter1_ddii_4_111)">
<rect x="80" y="78" width="716" height="716" rx="128" fill="url(#paint0_linear_4_111)" style=""/>
</g>
<g filter="url(#filter2_di_4_111)">
<path d="M610.011 196.512C638.411 188.903 674.863 206.973 683.852 240.521C695.161 282.726 660.99 308.121 641.328 313.389C607.467 322.462 579.37 312.593 568.135 276.167C557.406 236.125 573.966 206.171 610.011 196.512Z" fill="white" style="fill:white;fill-opacity:1;"/>
<path d="M610.011 196.512C638.411 188.903 674.863 206.973 683.852 240.521C695.161 282.726 660.99 308.121 641.328 313.389C607.467 322.462 579.37 312.593 568.135 276.167C557.406 236.125 573.966 206.171 610.011 196.512Z" stroke="#525252" style="stroke:#525252;stroke:color(display-p3 0.3216 0.3216 0.3216);stroke-opacity:1;" stroke-width="5" stroke-linecap="round"/>
</g>
<g filter="url(#filter3_di_4_111)">
<path d="M397.361 201.728C428.934 194.42 465.188 212.347 475.265 246.503C487.861 289.198 459.743 309.401 428.746 318.859C397.748 328.316 365.307 315.125 356.669 282.888C348.031 250.65 361.76 211.267 397.361 201.728Z" fill="white" style="fill:white;fill-opacity:1;"/>
<path d="M397.361 201.728C428.934 194.42 465.188 212.347 475.265 246.503C487.861 289.198 459.743 309.401 428.746 318.859C397.748 328.316 365.307 315.125 356.669 282.888C348.031 250.65 361.76 211.267 397.361 201.728Z" stroke="#525252" style="stroke:#525252;stroke:color(display-p3 0.3216 0.3216 0.3216);stroke-opacity:1;" stroke-width="5" stroke-linecap="round"/>
</g>
<g filter="url(#filter4_di_4_111)">
<path d="M254.869 364.142C281.839 356.915 322.69 354.023 339.804 409.267C354.474 464.015 322.686 474.834 294.133 484.786C267.163 492.013 227.895 474.921 220.918 444.575C215.598 416.085 219.268 373.681 254.869 364.142Z" fill="white" style="fill:white;fill-opacity:1;"/>
<path d="M254.869 364.142C281.839 356.915 322.69 354.023 339.804 409.267C354.474 464.015 322.686 474.834 294.133 484.786C267.163 492.013 227.895 474.921 220.918 444.575C215.598 416.085 219.268 373.681 254.869 364.142Z" stroke="#525252" style="stroke:#525252;stroke:color(display-p3 0.3216 0.3216 0.3216);stroke-opacity:1;" stroke-width="5" stroke-linecap="round"/>
</g>
<g filter="url(#filter5_di_4_111)">
<path d="M659.813 447.041C617.65 346.01 545.141 328.81 473.023 348.134C384.517 379.175 359.341 446.155 393.05 556.777C417.128 635.793 524.908 654.124 573.438 637.864C701.58 603.529 678.755 492.432 659.813 447.041Z" fill="white" style="fill:white;fill-opacity:1;"/>
<path d="M659.813 447.041C617.65 346.01 545.141 328.81 473.023 348.134C384.517 379.175 359.341 446.155 393.05 556.777C417.128 635.793 524.908 654.124 573.438 637.864C701.58 603.529 678.755 492.432 659.813 447.041Z" stroke="#525252" style="stroke:#525252;stroke:color(display-p3 0.3216 0.3216 0.3216);stroke-opacity:1;" stroke-width="5" stroke-linecap="round"/>
</g>
<g filter="url(#filter6_i_4_111)">
<path d="M193.16 647.76C191.984 647.76 190.808 647.592 189.632 647.256C188.456 647.088 187.28 646.92 186.104 646.752C183.08 645.912 180.98 644.148 179.804 641.46C178.292 638.1 178.292 634.068 179.804 629.364C181.484 624.492 184.172 618.276 187.868 610.716C188.54 609.372 189.212 607.86 189.884 606.18C190.724 604.5 191.48 602.904 192.152 601.392C189.968 602.232 187.616 603.66 185.096 605.676C182.744 607.524 180.308 609.456 177.788 611.472C176.108 612.648 174.26 613.152 172.244 612.984C170.06 612.648 168.296 611.724 166.952 610.212C165.776 608.532 165.356 606.684 165.692 604.668C165.86 602.652 166.7 600.888 168.212 599.376C170.564 597.696 173 595.848 175.52 593.832C178.208 591.816 180.896 590.136 183.584 588.792C190.472 585.264 196.772 584.34 202.484 586.02C205.172 586.524 207.188 588.204 208.532 591.06C209.876 593.748 209.792 597.108 208.28 601.14C206.936 605.172 204.584 610.632 201.224 617.52C200.384 619.536 199.46 621.552 198.452 623.568C197.612 625.584 196.772 627.516 195.932 629.364C195.764 630.036 195.512 630.624 195.176 631.128C195.008 631.632 194.84 632.136 194.672 632.64C198.2 632.136 203.324 630.372 210.044 627.348C216.932 624.156 226.172 617.94 237.764 608.7C243.98 603.828 249.608 599.124 254.648 594.588C259.688 589.884 263.72 586.02 266.744 582.996C269.768 579.972 271.28 578.46 271.28 578.46C273.296 576.108 275.732 575.352 278.588 576.192C279.932 576.36 281.024 576.948 281.864 577.956C282.704 578.796 283.376 579.636 283.88 580.476C285.056 582.828 285.14 585.6 284.132 588.792C283.292 591.816 281.444 596.772 278.588 603.66C277.58 605.844 276.572 608.028 275.564 610.212C274.724 612.396 273.884 614.412 273.044 616.26C272.876 616.932 272.708 617.52 272.54 618.024C272.54 618.36 272.456 618.696 272.288 619.032C275.48 618.528 278.84 617.184 282.368 615C286.064 612.648 289.592 610.044 292.952 607.188C296.48 604.332 299.42 601.896 301.772 599.88C303.452 598.368 305.3 597.696 307.316 597.864C309.332 598.032 311.096 598.872 312.608 600.384C313.952 602.064 314.54 603.912 314.372 605.928C314.372 607.944 313.532 609.708 311.852 611.22C306.644 615.756 301.268 620.04 295.724 624.072C290.348 628.104 284.888 631.128 279.344 633.144C273.968 634.992 268.508 635.244 262.964 633.9C260.276 632.724 258.344 631.044 257.168 628.86C256.16 626.508 255.824 623.904 256.16 621.048C256.664 618.192 257.672 614.664 259.184 610.464C257.336 612.144 255.404 613.74 253.388 615.252C251.54 616.764 249.524 618.444 247.34 620.292C224.156 638.604 206.096 647.76 193.16 647.76ZM340.637 625.836C339.797 625.836 339.125 625.752 338.621 625.584C335.933 624.912 334.001 623.904 332.825 622.56C331.817 621.048 331.145 619.872 330.809 619.032C329.633 615.336 330.053 611.556 332.069 607.692C334.085 603.66 336.689 599.46 339.881 595.092C340.889 593.748 341.813 592.32 342.653 590.808C343.661 589.128 344.501 587.7 345.173 586.524C345.341 586.356 345.593 586.02 345.929 585.516C344.921 585.852 343.661 586.356 342.149 587.028C340.805 587.7 339.209 588.708 337.361 590.052C334.337 591.9 331.145 594.336 327.785 597.36C324.425 600.216 320.981 603.24 317.453 606.432C316.613 607.104 315.689 607.86 314.681 608.7C313.841 609.54 313.001 610.38 312.161 611.22C310.649 612.564 308.885 613.236 306.869 613.236C304.685 613.068 302.921 612.144 301.577 610.464C300.065 608.952 299.393 607.188 299.561 605.172C299.729 602.988 300.569 601.224 302.081 599.88C302.921 599.04 303.845 598.2 304.853 597.36C305.693 596.52 306.533 595.764 307.373 595.092C312.749 590.22 318.041 585.768 323.249 581.736C328.457 577.536 333.581 574.344 338.621 572.16C343.661 569.976 348.533 569.556 353.237 570.9C356.093 571.572 358.109 572.748 359.285 574.428C360.629 575.94 361.385 577.284 361.553 578.46C363.065 582.156 362.729 586.104 360.545 590.304C358.361 594.336 355.589 598.788 352.229 603.66C351.893 603.996 351.473 604.584 350.969 605.424C350.633 606.096 350.213 606.768 349.709 607.44C352.229 606.432 355.505 605.172 359.537 603.66C363.569 602.148 368.441 600.3 374.153 598.116C376.337 597.444 378.353 597.612 380.201 598.62C382.049 599.46 383.309 600.888 383.981 602.904C384.821 604.752 384.737 606.684 383.729 608.7C382.889 610.548 381.545 611.892 379.697 612.732C374.321 614.58 369.449 616.26 365.081 617.772C360.713 619.284 357.017 620.628 353.993 621.804C352.313 622.476 350.801 623.064 349.457 623.568C348.281 623.904 347.189 624.24 346.181 624.576C345.005 624.912 343.997 625.248 343.157 625.584C342.317 625.752 341.477 625.836 340.637 625.836Z" fill="white" style="fill:white;fill-opacity:1;"/>
</g>
<defs>
<filter id="filter0_ddii_4_111" x="0" y="0" width="872" height="872" filterUnits="userSpaceOnUse" color-interpolation-filters="sRGB">
<feFlood flood-opacity="0" result="BackgroundImageFix"/>
<feColorMatrix in="SourceAlpha" type="matrix" values="0 0 0 0 0 0 0 0 0 0 0 0 0 0 0 0 0 0 127 0" result="hardAlpha"/>
<feOffset dy="10"/>
<feGaussianBlur stdDeviation="5"/>
<feComposite in2="hardAlpha" operator="out"/>
<feColorMatrix type="matrix" values="0 0 0 0 0 0 0 0 0 0 0 0 0 0 0 0 0 0 0.3 0"/>
<feBlend mode="normal" in2="BackgroundImageFix" result="effect1_dropShadow_4_111"/>
<feColorMatrix in="SourceAlpha" type="matrix" values="0 0 0 0 0 0 0 0 0 0 0 0 0 0 0 0 0 0 127 0" result="hardAlpha"/>
<feMorphology radius="4" operator="dilate" in="SourceAlpha" result="effect2_dropShadow_4_111"/>
<feOffset/>
<feGaussianBlur stdDeviation="10"/>
<feComposite in2="hardAlpha" operator="out"/>
<feColorMatrix type="matrix" values="0 0 0 0 0 0 0 0 0 0 0 0 0 0 0 0 0 0 0.2 0"/>
<feBlend mode="normal" in2="effect1_dropShadow_4_111" result="effect2_dropShadow_4_111"/>
<feBlend mode="normal" in="SourceGraphic" in2="effect2_dropShadow_4_111" result="shape"/>
<feColorMatrix in="SourceAlpha" type="matrix" values="0 0 0 0 0 0 0 0 0 0 0 0 0 0 0 0 0 0 127 0" result="hardAlpha"/>
<feOffset dy="4"/>
<feGaussianBlur stdDeviation="1"/>
<feComposite in2="hardAlpha" operator="arithmetic" k2="-1" k3="1"/>
<feColorMatrix type="matrix" values="0 0 0 0 1 0 0 0 0 1 0 0 0 0 1 0 0 0 0.3 0"/>
<feBlend mode="normal" in2="shape" result="effect3_innerShadow_4_111"/>
<feColorMatrix in="SourceAlpha" type="matrix" values="0 0 0 0 0 0 0 0 0 0 0 0 0 0 0 0 0 0 127 0" result="hardAlpha"/>
<feOffset dy="-3"/>
<feGaussianBlur stdDeviation="2"/>
<feComposite in2="hardAlpha" operator="arithmetic" k2="-1" k3="1"/>
<feColorMatrix type="matrix" values="0 0 0 0 0 0 0 0 0 0 0 0 0 0 0 0 0 0 0.25 0"/>
<feBlend mode="normal" in2="effect3_innerShadow_4_111" result="effect4_innerShadow_4_111"/>
</filter>
<filter id="filter1_ddii_4_111" x="77" y="73" width="722" height="727" filterUnits="userSpaceOnUse" color-interpolation-filters="sRGB">
<feFlood flood-opacity="0" result="BackgroundImageFix"/>
<feColorMatrix in="SourceAlpha" type="matrix" values="0 0 0 0 0 0 0 0 0 0 0 0 0 0 0 0 0 0 127 0" result="hardAlpha"/>
<feOffset dy="4"/>
<feGaussianBlur stdDeviation="1"/>
<feComposite in2="hardAlpha" operator="out"/>
<feColorMatrix type="matrix" values="0 0 0 0 1 0 0 0 0 1 0 0 0 0 1 0 0 0 0.15 0"/>
<feBlend mode="normal" in2="BackgroundImageFix" result="effect1_dropShadow_4_111"/>
<feColorMatrix in="SourceAlpha" type="matrix" values="0 0 0 0 0 0 0 0 0 0 0 0 0 0 0 0 0 0 127 0" result="hardAlpha"/>
<feOffset dy="-2"/>
<feGaussianBlur stdDeviation="1.5"/>
<feComposite in2="hardAlpha" operator="out"/>
<feColorMatrix type="matrix" values="0 0 0 0 0 0 0 0 0 0 0 0 0 0 0 0 0 0 0.59 0"/>
<feBlend mode="normal" in2="effect1_dropShadow_4_111" result="effect2_dropShadow_4_111"/>
<feBlend mode="normal" in="SourceGraphic" in2="effect2_dropShadow_4_111" result="shape"/>
<feColorMatrix in="SourceAlpha" type="matrix" values="0 0 0 0 0 0 0 0 0 0 0 0 0 0 0 0 0 0 127 0" result="hardAlpha"/>
<feOffset dy="5"/>
<feGaussianBlur stdDeviation="10.5"/>
<feComposite in2="hardAlpha" operator="arithmetic" k2="-1" k3="1"/>
<feColorMatrix type="matrix" values="0 0 0 0 0 0 0 0 0 0 0 0 0 0 0 0 0 0 0.23 0"/>
<feBlend mode="normal" in2="shape" result="effect3_innerShadow_4_111"/>
<feColorMatrix in="SourceAlpha" type="matrix" values="0 0 0 0 0 0 0 0 0 0 0 0 0 0 0 0 0 0 127 0" result="hardAlpha"/>
<feOffset dy="5"/>
<feGaussianBlur stdDeviation="2"/>
<feComposite in2="hardAlpha" operator="arithmetic" k2="-1" k3="1"/>
<feColorMatrix type="matrix" values="0 0 0 0 0 0 0 0 0 0 0 0 0 0 0 0 0 0 0.07 0"/>
<feBlend mode="normal" in2="effect3_innerShadow_4_111" result="effect4_innerShadow_4_111"/>
</filter>
<filter id="filter2_di_4_111" x="554.41" y="192.287" width="142.184" height="142.763" filterUnits="userSpaceOnUse" color-interpolation-filters="sRGB">
<feFlood flood-opacity="0" result="BackgroundImageFix"/>
<feColorMatrix in="SourceAlpha" type="matrix" values="0 0 0 0 0 0 0 0 0 0 0 0 0 0 0 0 0 0 127 0" result="hardAlpha"/>
<feOffset dy="8"/>
<feGaussianBlur stdDeviation="4"/>
<feComposite in2="hardAlpha" operator="out"/>
<feColorMatrix type="matrix" values="0 0 0 0 0 0 0 0 0 0 0 0 0 0 0 0 0 0 0.25 0"/>
<feBlend mode="normal" in2="BackgroundImageFix" result="effect1_dropShadow_4_111"/>
<feBlend mode="normal" in="SourceGraphic" in2="effect1_dropShadow_4_111" result="shape"/>
<feColorMatrix in="SourceAlpha" type="matrix" values="0 0 0 0 0 0 0 0 0 0 0 0 0 0 0 0 0 0 127 0" result="hardAlpha"/>
<feOffset dy="16"/>
<feGaussianBlur stdDeviation="8"/>
<feComposite in2="hardAlpha" operator="arithmetic" k2="-1" k3="1"/>
<feColorMatrix type="matrix" values="0 0 0 0 0 0 0 0 0 0 0 0 0 0 0 0 0 0 0.2 0"/>
<feBlend mode="normal" in2="shape" result="effect2_innerShadow_4_111"/>
</filter>
<filter id="filter3_di_4_111" x="343.675" y="197.614" width="145.17" height="142.731" filterUnits="userSpaceOnUse" color-interpolation-filters="sRGB">
<feFlood flood-opacity="0" result="BackgroundImageFix"/>
<feColorMatrix in="SourceAlpha" type="matrix" values="0 0 0 0 0 0 0 0 0 0 0 0 0 0 0 0 0 0 127 0" result="hardAlpha"/>
<feOffset dy="8"/>
<feGaussianBlur stdDeviation="4"/>
<feComposite in2="hardAlpha" operator="out"/>
<feColorMatrix type="matrix" values="0 0 0 0 0 0 0 0 0 0 0 0 0 0 0 0 0 0 0.25 0"/>
<feBlend mode="normal" in2="BackgroundImageFix" result="effect1_dropShadow_4_111"/>
<feBlend mode="normal" in="SourceGraphic" in2="effect1_dropShadow_4_111" result="shape"/>
<feColorMatrix in="SourceAlpha" type="matrix" values="0 0 0 0 0 0 0 0 0 0 0 0 0 0 0 0 0 0 127 0" result="hardAlpha"/>
<feOffset dy="16"/>
<feGaussianBlur stdDeviation="8"/>
<feComposite in2="hardAlpha" operator="arithmetic" k2="-1" k3="1"/>
<feColorMatrix type="matrix" values="0 0 0 0 0 0 0 0 0 0 0 0 0 0 0 0 0 0 0.2 0"/>
<feBlend mode="normal" in2="shape" result="effect2_innerShadow_4_111"/>
</filter>
<filter id="filter4_di_4_111" x="208.453" y="357.759" width="145.549" height="147.176" filterUnits="userSpaceOnUse" color-interpolation-filters="sRGB">
<feFlood flood-opacity="0" result="BackgroundImageFix"/>
<feColorMatrix in="SourceAlpha" type="matrix" values="0 0 0 0 0 0 0 0 0 0 0 0 0 0 0 0 0 0 127 0" result="hardAlpha"/>
<feOffset dy="8"/>
<feGaussianBlur stdDeviation="4"/>
<feComposite in2="hardAlpha" operator="out"/>
<feColorMatrix type="matrix" values="0 0 0 0 0 0 0 0 0 0 0 0 0 0 0 0 0 0 0.25 0"/>
<feBlend mode="normal" in2="BackgroundImageFix" result="effect1_dropShadow_4_111"/>
<feBlend mode="normal" in="SourceGraphic" in2="effect1_dropShadow_4_111" result="shape"/>
<feColorMatrix in="SourceAlpha" type="matrix" values="0 0 0 0 0 0 0 0 0 0 0 0 0 0 0 0 0 0 127 0" result="hardAlpha"/>
<feOffset dy="16"/>
<feGaussianBlur stdDeviation="8"/>
<feComposite in2="hardAlpha" operator="arithmetic" k2="-1" k3="1"/>
<feColorMatrix type="matrix" values="0 0 0 0 0 0 0 0 0 0 0 0 0 0 0 0 0 0 0.2 0"/>
<feBlend mode="normal" in2="shape" result="effect2_innerShadow_4_111"/>
</filter>
<filter id="filter5_di_4_111" x="368.18" y="338.672" width="316.915" height="323.124" filterUnits="userSpaceOnUse" color-interpolation-filters="sRGB">
<feFlood flood-opacity="0" result="BackgroundImageFix"/>
<feColorMatrix in="SourceAlpha" type="matrix" values="0 0 0 0 0 0 0 0 0 0 0 0 0 0 0 0 0 0 127 0" result="hardAlpha"/>
<feOffset dy="8"/>
<feGaussianBlur stdDeviation="4"/>
<feComposite in2="hardAlpha" operator="out"/>
<feColorMatrix type="matrix" values="0 0 0 0 0 0 0 0 0 0 0 0 0 0 0 0 0 0 0.25 0"/>
<feBlend mode="normal" in2="BackgroundImageFix" result="effect1_dropShadow_4_111"/>
<feBlend mode="normal" in="SourceGraphic" in2="effect1_dropShadow_4_111" result="shape"/>
<feColorMatrix in="SourceAlpha" type="matrix" values="0 0 0 0 0 0 0 0 0 0 0 0 0 0 0 0 0 0 127 0" result="hardAlpha"/>
<feOffset dy="16"/>
<feGaussianBlur stdDeviation="8"/>
<feComposite in2="hardAlpha" operator="arithmetic" k2="-1" k3="1"/>
<feColorMatrix type="matrix" values="0 0 0 0 0 0 0 0 0 0 0 0 0 0 0 0 0 0 0.2 0"/>
<feBlend mode="normal" in2="shape" result="effect2_innerShadow_4_111"/>
</filter>
<filter id="filter6_i_4_111" x="165.188" y="568.884" width="220.053" height="82.876" filterUnits="userSpaceOnUse" color-interpolation-filters="sRGB">
<feFlood flood-opacity="0" result="BackgroundImageFix"/>
<feBlend mode="normal" in="SourceGraphic" in2="BackgroundImageFix" result="shape"/>
<feColorMatrix in="SourceAlpha" type="matrix" values="0 0 0 0 0 0 0 0 0 0 0 0 0 0 0 0 0 0 127 0" result="hardAlpha"/>
<feOffset dy="4"/>
<feGaussianBlur stdDeviation="2"/>
<feComposite in2="hardAlpha" operator="arithmetic" k2="-1" k3="1"/>
<feColorMatrix type="matrix" values="0 0 0 0 0 0 0 0 0 0 0 0 0 0 0 0 0 0 0.1 0"/>
<feBlend mode="normal" in2="shape" result="effect1_innerShadow_4_111"/>
</filter>
<linearGradient id="paint0_linear_4_111" x1="438" y1="78" x2="438" y2="794" gradientUnits="userSpaceOnUse">
<stop stop-color="#171717" style="stop-color:#171717;stop-color:color(display-p3 0.0902 0.0902 0.0902);stop-opacity:1;"/>
<stop offset="1" stop-color="#0A0A0A" style="stop-color:#0A0A0A;stop-color:color(display-p3 0.0392 0.0392 0.0392);stop-opacity:1;"/>
<stop offset="1" stop-color="#0A0A0A" style="stop-color:#0A0A0A;stop-color:color(display-p3 0.0392 0.0392 0.0392);stop-opacity:1;"/>
</linearGradient>
</defs>
</svg>
