<svg width="824" height="824" viewBox="0 0 824 824" fill="none" xmlns="http://www.w3.org/2000/svg">
<path d="M670.359 51.3692C713.144 39.9051 768.059 67.1279 781.601 117.668C798.638 181.251 747.159 219.508 717.539 227.445C666.526 241.114 624.198 226.245 607.273 171.369C591.11 111.047 616.056 65.9197 670.359 51.3692Z" fill="white" style="fill:white;fill-opacity:1;"/>
<path d="M350.001 59.2268C397.566 48.2168 452.183 75.2248 467.364 126.681C486.34 191 443.98 221.437 397.282 235.684C350.584 249.932 301.712 230.061 288.699 181.494C275.685 132.928 296.368 73.5976 350.001 59.2268Z" fill="white" style="fill:white;fill-opacity:1;"/>
<path d="M135.336 303.904C175.967 293.017 237.509 288.66 263.291 371.886C285.391 454.364 237.502 470.662 194.487 485.655C153.857 496.542 94.6992 470.793 84.1895 425.076C76.1736 382.157 81.703 318.275 135.336 303.904Z" fill="white" style="fill:white;fill-opacity:1;"/>
<path d="M745.385 428.792C681.867 276.588 572.632 250.676 463.986 279.788C330.651 326.551 292.724 427.457 343.507 594.11C379.78 713.147 542.151 740.763 615.261 716.268C808.309 664.541 773.923 497.174 745.385 428.792Z" fill="white" style="fill:white;fill-opacity:1;"/>
<path d="M32.16 625.056C30.984 625.056 29.808 624.888 28.632 624.552C27.456 624.384 26.28 624.216 25.104 624.048C22.08 623.208 19.98 621.444 18.804 618.756C17.292 615.396 17.292 611.364 18.804 606.66C20.484 601.788 23.172 595.572 26.868 588.012C27.54 586.668 28.212 585.156 28.884 583.476C29.724 581.796 30.48 580.2 31.152 578.688C28.968 579.528 26.616 580.956 24.096 582.972C21.744 584.82 19.308 586.752 16.788 588.768C15.108 589.944 13.26 590.448 11.244 590.28C9.06 589.944 7.296 589.02 5.952 587.508C4.776 585.828 4.356 583.98 4.692 581.964C4.86 579.948 5.7 578.184 7.212 576.672C9.564 574.992 12 573.144 14.52 571.128C17.208 569.112 19.896 567.432 22.584 566.088C29.472 562.56 35.772 561.636 41.484 563.316C44.172 563.82 46.188 565.5 47.532 568.356C48.876 571.044 48.792 574.404 47.28 578.436C45.936 582.468 43.584 587.928 40.224 594.816C39.384 596.832 38.46 598.848 37.452 600.864C36.612 602.88 35.772 604.812 34.932 606.66C34.764 607.332 34.512 607.92 34.176 608.424C34.008 608.928 33.84 609.432 33.672 609.936C37.2 609.432 42.324 607.668 49.044 604.644C55.932 601.452 65.172 595.236 76.764 585.996C82.98 581.124 88.608 576.42 93.648 571.884C98.688 567.18 102.72 563.316 105.744 560.292C108.768 557.268 110.28 555.756 110.28 555.756C112.296 553.404 114.732 552.648 117.588 553.488C118.932 553.656 120.024 554.244 120.864 555.252C121.704 556.092 122.376 556.932 122.88 557.772C124.056 560.124 124.14 562.896 123.132 566.088C122.292 569.112 120.444 574.068 117.588 580.956C116.58 583.14 115.572 585.324 114.564 587.508C113.724 589.692 112.884 591.708 112.044 593.556C111.876 594.228 111.708 594.816 111.54 595.32C111.54 595.656 111.456 595.992 111.288 596.328C114.48 595.824 117.84 594.48 121.368 592.296C125.064 589.944 128.592 587.34 131.952 584.484C135.48 581.628 138.42 579.192 140.772 577.176C142.452 575.664 144.3 574.992 146.316 575.16C148.332 575.328 150.096 576.168 151.608 577.68C152.952 579.36 153.54 581.208 153.372 583.224C153.372 585.24 152.532 587.004 150.852 588.516C145.644 593.052 140.268 597.336 134.724 601.368C129.348 605.4 123.888 608.424 118.344 610.44C112.968 612.288 107.508 612.54 101.964 611.196C99.276 610.02 97.344 608.34 96.168 606.156C95.16 603.804 94.824 601.2 95.16 598.344C95.664 595.488 96.672 591.96 98.184 587.76C96.336 589.44 94.404 591.036 92.388 592.548C90.54 594.06 88.524 595.74 86.34 597.588C63.156 615.9 45.096 625.056 32.16 625.056ZM179.637 603.132C178.797 603.132 178.125 603.048 177.621 602.88C174.933 602.208 173.001 601.2 171.825 599.856C170.817 598.344 170.145 597.168 169.809 596.328C168.633 592.632 169.053 588.852 171.069 584.988C173.085 580.956 175.689 576.756 178.881 572.388C179.889 571.044 180.813 569.616 181.653 568.104C182.661 566.424 183.501 564.996 184.173 563.82C184.341 563.652 184.593 563.316 184.929 562.812C183.921 563.148 182.661 563.652 181.149 564.324C179.805 564.996 178.209 566.004 176.361 567.348C173.337 569.196 170.145 571.632 166.785 574.656C163.425 577.512 159.981 580.536 156.453 583.728C155.613 584.4 154.689 585.156 153.681 585.996C152.841 586.836 152.001 587.676 151.161 588.516C149.649 589.86 147.885 590.532 145.869 590.532C143.685 590.364 141.921 589.44 140.577 587.76C139.065 586.248 138.393 584.484 138.561 582.468C138.729 580.284 139.569 578.52 141.081 577.176C141.921 576.336 142.845 575.496 143.853 574.656C144.693 573.816 145.533 573.06 146.373 572.388C151.749 567.516 157.041 563.064 162.249 559.032C167.457 554.832 172.581 551.64 177.621 549.456C182.661 547.272 187.533 546.852 192.237 548.196C195.093 548.868 197.109 550.044 198.285 551.724C199.629 553.236 200.385 554.58 200.553 555.756C202.065 559.452 201.729 563.4 199.545 567.6C197.361 571.632 194.589 576.084 191.229 580.956C190.893 581.292 190.473 581.88 189.969 582.72C189.633 583.392 189.213 584.064 188.709 584.736C191.229 583.728 194.505 582.468 198.537 580.956C202.569 579.444 207.441 577.596 213.153 575.412C215.337 574.74 217.353 574.908 219.201 575.916C221.049 576.756 222.309 578.184 222.981 580.2C223.821 582.048 223.737 583.98 222.729 585.996C221.889 587.844 220.545 589.188 218.697 590.028C213.321 591.876 208.449 593.556 204.081 595.068C199.713 596.58 196.017 597.924 192.993 599.1C191.313 599.772 189.801 600.36 188.457 600.864C187.281 601.2 186.189 601.536 185.181 601.872C184.005 602.208 182.997 602.544 182.157 602.88C181.317 603.048 180.477 603.132 179.637 603.132Z" fill="white" style="fill:white;fill-opacity:1;"/>
</svg>
